<svg width="234" height="84" viewBox="0 0 234 84" fill="none" xmlns="http://www.w3.org/2000/svg">
<path d="M107.705 51C113.023 51 116.244 47.7102 116.244 42.2557C116.244 36.8182 113.023 33.5455 107.756 33.5455H101.517V51H107.705ZM105.207 47.8381V36.7074H107.56C110.832 36.7074 112.562 38.3778 112.562 42.2557C112.562 46.1506 110.832 47.8381 107.551 47.8381H105.207ZM127.305 45.4261C127.313 47.1818 126.112 48.1023 124.808 48.1023C123.435 48.1023 122.549 47.1392 122.54 45.5966V37.9091H118.91V46.2443C118.918 49.304 120.708 51.1705 123.342 51.1705C125.31 51.1705 126.725 50.1562 127.313 48.6222H127.45V51H130.935V37.9091H127.305V45.4261ZM138.663 51.2131C140.777 51.2131 141.876 49.9943 142.379 48.9034H142.533V51H146.112V33.5455H142.49V40.108H142.379C141.893 39.0426 140.845 37.7386 138.655 37.7386C135.783 37.7386 133.354 39.9716 133.354 44.4716C133.354 48.8523 135.68 51.2131 138.663 51.2131ZM139.814 48.3239C138.033 48.3239 137.061 46.7386 137.061 44.4545C137.061 42.1875 138.016 40.6278 139.814 40.6278C141.578 40.6278 142.567 42.1193 142.567 44.4545C142.567 46.7898 141.561 48.3239 139.814 48.3239ZM155.063 51.2557C158.302 51.2557 160.484 49.679 160.995 47.25L157.637 47.0284C157.271 48.0256 156.333 48.5455 155.123 48.5455C153.308 48.5455 152.157 47.3438 152.157 45.392V45.3835H161.072V44.3864C161.072 39.9375 158.379 37.7386 154.918 37.7386C151.066 37.7386 148.569 40.4744 148.569 44.5142C148.569 48.6648 151.032 51.2557 155.063 51.2557ZM152.157 43.1335C152.234 41.642 153.367 40.4489 154.978 40.4489C156.555 40.4489 157.646 41.5739 157.654 43.1335H152.157ZM174.333 41.642C174.009 39.2301 172.066 37.7386 168.759 37.7386C165.41 37.7386 163.202 39.2898 163.211 41.8125C163.202 43.7727 164.438 45.0426 166.995 45.554L169.262 46.0057C170.404 46.2358 170.924 46.6534 170.941 47.3097C170.924 48.0852 170.08 48.6392 168.81 48.6392C167.515 48.6392 166.654 48.0852 166.433 47.0199L162.862 47.2074C163.202 49.7131 165.333 51.2557 168.802 51.2557C172.194 51.2557 174.623 49.5256 174.631 46.9432C174.623 45.0511 173.387 43.9176 170.847 43.3977L168.478 42.9205C167.259 42.6562 166.808 42.2386 166.816 41.608C166.808 40.8239 167.694 40.3125 168.819 40.3125C170.08 40.3125 170.83 41.0028 171.009 41.8466L174.333 41.642ZM180.548 43.4318C180.557 41.7443 181.588 40.7557 183.071 40.7557C184.545 40.7557 185.415 41.7017 185.406 43.3125V51H189.037V42.6648C189.045 39.5966 187.239 37.7386 184.511 37.7386C182.526 37.7386 181.196 38.6761 180.599 40.2188H180.446V33.5455H176.918V51H180.548V43.4318ZM195.627 51.2472C197.562 51.2472 198.815 50.4034 199.454 49.1847H199.556V51H202.999V42.1705C202.999 39.0511 200.357 37.7386 197.442 37.7386C194.306 37.7386 192.244 39.2386 191.741 41.625L195.099 41.8977C195.346 41.0284 196.121 40.3892 197.425 40.3892C198.661 40.3892 199.369 41.0114 199.369 42.0852V42.1364C199.369 42.9801 198.474 43.0909 196.198 43.3125C193.607 43.5511 191.281 44.4205 191.281 47.3438C191.281 49.9347 193.13 51.2472 195.627 51.2472ZM196.667 48.7415C195.55 48.7415 194.749 48.2216 194.749 47.2244C194.749 46.2017 195.593 45.6989 196.871 45.5199C197.664 45.4091 198.96 45.2216 199.394 44.9318V46.321C199.394 47.6932 198.261 48.7415 196.667 48.7415ZM205.816 55.9091H209.447V48.9034H209.558C210.06 49.9943 211.16 51.2131 213.273 51.2131C216.256 51.2131 218.583 48.8523 218.583 44.4716C218.583 39.9716 216.154 37.7386 213.282 37.7386C211.092 37.7386 210.043 39.0426 209.558 40.108H209.396V37.9091H205.816V55.9091ZM209.37 44.4545C209.37 42.1193 210.359 40.6278 212.123 40.6278C213.921 40.6278 214.876 42.1875 214.876 44.4545C214.876 46.7386 213.904 48.3239 212.123 48.3239C210.376 48.3239 209.37 46.7898 209.37 44.4545ZM226.969 51.2557C230.208 51.2557 232.39 49.679 232.901 47.25L229.543 47.0284C229.177 48.0256 228.239 48.5455 227.029 48.5455C225.214 48.5455 224.063 47.3438 224.063 45.392V45.3835H232.978V44.3864C232.978 39.9375 230.285 37.7386 226.825 37.7386C222.972 37.7386 220.475 40.4744 220.475 44.5142C220.475 48.6648 222.938 51.2557 226.969 51.2557ZM224.063 43.1335C224.14 41.642 225.273 40.4489 226.884 40.4489C228.461 40.4489 229.552 41.5739 229.56 43.1335H224.063Z" fill="black"/>
<circle cx="40" cy="42" r="40" fill="black"/>
<path d="M38.9844 28.2227C42.5234 28.3164 45.3828 29.7344 47.5625 32.4766L51.2891 13H61.2383L51.8867 67H43.0273L43.5898 62.9219C40.7539 66.2266 37.4492 67.832 33.6758 67.7383C31.3086 67.7148 29.2344 67.0938 27.4531 65.875C25.6719 64.6562 24.2891 62.9102 23.3047 60.6367C22.3438 58.3398 21.8164 55.7852 21.7227 52.9727C21.6523 51.4961 21.6875 50.0664 21.8281 48.6836L22.0391 47.1016C22.6016 43.2109 23.6797 39.7891 25.2734 36.8359C26.8906 33.8828 28.8594 31.6914 31.1797 30.2617C33.5234 28.832 36.125 28.1523 38.9844 28.2227ZM31.7773 48.6836C31.5898 50.4648 31.5312 51.9648 31.6016 53.1836C31.8359 57.3086 33.5 59.4062 36.5938 59.4766C39.3828 59.5938 41.8086 58.2812 43.8711 55.5391L46.5781 40.4219C45.6641 37.9141 43.8359 36.6016 41.0938 36.4844C38.6797 36.4141 36.6641 37.3516 35.0469 39.2969C33.4531 41.2188 32.3633 44.3477 31.7773 48.6836Z" fill="white"/>
</svg>
