<?xml version="1.0" encoding="utf-8"?><svg viewBox="0 0 234 84" xmlns="http://www.w3.org/2000/svg" xmlns:xlink="http://www.w3.org/1999/xlink"><style>:root>svg{display:none}:root>svg:target{display:block}</style><svg fill="none" viewBox="0 0 8 14" id="arrow-left" xmlns="http://www.w3.org/2000/svg"><path d="M7 13L1 7l6-6" stroke="#25282B" stroke-width="2" stroke-linecap="round" stroke-linejoin="round"/></svg><svg fill="none" viewBox="0 0 8 14" id="arrow-right" xmlns="http://www.w3.org/2000/svg"><path d="M1 13l6-6-6-6" stroke="#25282B" stroke-width="2" stroke-linecap="round" stroke-linejoin="round"/></svg><svg fill="none" viewBox="0 0 23 23" id="check" xmlns="http://www.w3.org/2000/svg"><path d="M11.7.51C5.66.51.76 5.405.76 11.44c0 6.035 4.899 10.928 10.94 10.928 6.043 0 10.941-4.893 10.941-10.929-.007-6.033-4.9-10.921-10.94-10.928z" fill="#5243C2" fill-opacity=".104"/><path d="M18.016 7.979l-6.24 8.46a.922.922 0 01-1.304.17L6.016 13.05a.91.91 0 111.14-1.422l3.715 2.97L16.548 6.9a.912.912 0 111.468 1.078z" fill="#5243C2"/></svg><svg fill="none" viewBox="0 0 23 23" id="check-light" xmlns="http://www.w3.org/2000/svg"><path opacity=".1" d="M11.539.675C5.496.675.599 5.568.599 11.603c0 6.036 4.897 10.929 10.94 10.929 6.042 0 10.94-4.893 10.94-10.929C22.472 5.571 17.578.682 11.539.675z" fill="#fff"/><path d="M17.854 8.143l-6.24 8.46a.922.922 0 01-1.304.17l-4.457-3.559a.91.91 0 111.14-1.422l3.716 2.97 5.677-7.697a.912.912 0 111.468 1.078z" fill="#fff"/></svg><svg fill="none" viewBox="0 0 234 84" id="logo" xmlns="http://www.w3.org/2000/svg"><path d="M107.705 51c5.318 0 8.539-3.29 8.539-8.744 0-5.438-3.221-8.71-8.488-8.71h-6.239V51h6.188zm-2.498-3.162v-11.13h2.353c3.272 0 5.002 1.67 5.002 5.548 0 3.895-1.73 5.582-5.011 5.582h-2.344zm22.098-2.412c.008 1.756-1.193 2.676-2.497 2.676-1.373 0-2.259-.963-2.268-2.505v-7.688h-3.63v8.335c.008 3.06 1.798 4.926 4.432 4.926 1.968 0 3.383-1.014 3.971-2.548h.137V51h3.485V37.91h-3.63v7.516zm11.358 5.787c2.114 0 3.213-1.219 3.716-2.31h.154V51h3.579V33.545h-3.622v6.563h-.111c-.486-1.065-1.534-2.37-3.724-2.37-2.872 0-5.301 2.234-5.301 6.734 0 4.38 2.326 6.741 5.309 6.741zm1.151-2.89c-1.781 0-2.753-1.584-2.753-3.868 0-2.267.955-3.827 2.753-3.827 1.764 0 2.753 1.491 2.753 3.827 0 2.335-1.006 3.869-2.753 3.869zm15.249 2.933c3.239 0 5.421-1.577 5.932-4.006l-3.358-.222c-.366.998-1.304 1.517-2.514 1.517-1.815 0-2.966-1.201-2.966-3.153v-.009h8.915v-.997c0-4.449-2.693-6.647-6.154-6.647-3.852 0-6.349 2.735-6.349 6.775 0 4.15 2.463 6.742 6.494 6.742zm-2.906-8.123c.077-1.491 1.21-2.684 2.821-2.684 1.577 0 2.668 1.125 2.676 2.684h-5.497zm22.176-1.491c-.324-2.412-2.267-3.903-5.574-3.903-3.349 0-5.557 1.55-5.548 4.074-.009 1.96 1.227 3.23 3.784 3.741l2.267.452c1.142.23 1.662.647 1.679 1.304-.017.775-.861 1.33-2.131 1.33-1.295 0-2.156-.555-2.377-1.62l-3.571.187c.34 2.506 2.471 4.049 5.94 4.049 3.392 0 5.821-1.73 5.829-4.313-.008-1.892-1.244-3.025-3.784-3.545l-2.369-.478c-1.219-.264-1.67-.681-1.662-1.312-.008-.784.878-1.295 2.003-1.295 1.261 0 2.011.69 2.19 1.534l3.324-.205zm6.215 1.79c.009-1.688 1.04-2.676 2.523-2.676 1.474 0 2.344.946 2.335 2.556V51h3.631v-8.335c.008-3.068-1.798-4.926-4.526-4.926-1.985 0-3.315.937-3.912 2.48h-.153v-6.674h-3.528V51h3.63v-7.568zm15.079 7.815c1.935 0 3.188-.844 3.827-2.062h.102V51h3.443v-8.83c0-3.119-2.642-4.431-5.557-4.431-3.136 0-5.198 1.5-5.701 3.886l3.358.273c.247-.87 1.022-1.509 2.326-1.509 1.236 0 1.944.622 1.944 1.696v.051c0 .844-.895.955-3.171 1.176-2.591.24-4.917 1.108-4.917 4.032 0 2.59 1.849 3.903 4.346 3.903zm1.04-2.505c-1.117 0-1.918-.52-1.918-1.518 0-1.022.844-1.525 2.122-1.704.793-.11 2.089-.298 2.523-.588v1.389c0 1.372-1.133 2.42-2.727 2.42zm9.149 7.167h3.631v-7.006h.111c.502 1.091 1.602 2.31 3.715 2.31 2.983 0 5.31-2.36 5.31-6.741 0-4.5-2.429-6.733-5.301-6.733-2.19 0-3.239 1.304-3.724 2.369h-.162v-2.199h-3.58v18zm3.554-11.454c0-2.336.989-3.827 2.753-3.827 1.798 0 2.753 1.56 2.753 3.827 0 2.284-.972 3.869-2.753 3.869-1.747 0-2.753-1.534-2.753-3.87zm17.599 6.8c3.239 0 5.421-1.576 5.932-4.005l-3.358-.222c-.366.998-1.304 1.517-2.514 1.517-1.815 0-2.966-1.201-2.966-3.153v-.009h8.915v-.997c0-4.449-2.693-6.647-6.153-6.647-3.853 0-6.35 2.735-6.35 6.775 0 4.15 2.463 6.742 6.494 6.742zm-2.906-8.122c.077-1.491 1.21-2.684 2.821-2.684 1.577 0 2.668 1.125 2.676 2.684h-5.497z" fill="#000"/><circle cx="40" cy="42" r="40" fill="#000"/><path d="M38.984 28.223c3.54.093 6.399 1.511 8.578 4.254L51.29 13h9.95l-9.352 54h-8.86l.563-4.078c-2.836 3.305-6.14 4.91-9.914 4.816-2.367-.023-4.442-.644-6.223-1.863-1.781-1.219-3.164-2.965-4.148-5.238-.961-2.297-1.489-4.852-1.582-7.664a28.807 28.807 0 01.105-4.29l.211-1.581c.563-3.891 1.64-7.313 3.234-10.266 1.618-2.953 3.586-5.145 5.907-6.574 2.343-1.43 4.945-2.11 7.804-2.04zm-7.207 20.46c-.187 1.782-.246 3.282-.175 4.5.234 4.126 1.898 6.223 4.992 6.294 2.789.117 5.215-1.196 7.277-3.938l2.707-15.117c-.914-2.508-2.742-3.82-5.484-3.938-2.414-.07-4.43.868-6.047 2.813-1.594 1.922-2.684 5.05-3.27 9.387z" fill="#fff"/></svg><svg fill="none" viewBox="0 0 24 19" id="quote" xmlns="http://www.w3.org/2000/svg"><path d="M5.555.016c1.872 0 3.288.768 4.248 2.304.816 1.296 1.224 2.88 1.224 4.752 0 2.4-.624 4.56-1.872 6.48-1.2 1.92-3.048 3.456-5.544 4.608l-.648-1.296c1.488-.624 2.76-1.608 3.816-2.952 1.104-1.344 1.656-2.712 1.656-4.104 0-.576-.072-1.08-.216-1.512a4.102 4.102 0 01-2.664.936c-1.296 0-2.4-.408-3.312-1.224C1.379 7.144.947 6.016.947 4.624c0-1.296.432-2.376 1.296-3.24C3.155.472 4.259.016 5.555.016zm12.24 0c1.872 0 3.288.768 4.248 2.304.816 1.296 1.224 2.88 1.224 4.752 0 2.4-.624 4.56-1.872 6.48-1.2 1.92-3.048 3.456-5.544 4.608l-.648-1.296c1.488-.624 2.76-1.608 3.816-2.952 1.104-1.344 1.656-2.712 1.656-4.104 0-.576-.072-1.08-.216-1.512a4.102 4.102 0 01-2.664.936c-1.296 0-2.4-.408-3.312-1.224-.864-.864-1.296-1.992-1.296-3.384 0-1.296.432-2.376 1.296-3.24.912-.912 2.016-1.368 3.312-1.368z" fill="#FF6744"/></svg><svg fill="none" viewBox="0 0 80 80" id="service-1" xmlns="http://www.w3.org/2000/svg"><g clip-path="url(#gclip0_17:68)" fill="#FF6744"><path d="M40 0a9.333 9.333 0 00-9.333 9.333A9.344 9.344 0 0040 18.667 9.333 9.333 0 0040 0zm0 16a6.667 6.667 0 01-6.667-6.667A6.675 6.675 0 0140 2.667 6.667 6.667 0 0140 16zM44 20h-8c-6.624.007-11.993 5.376-12 12v22.667h5.333V80H32V49.333h-2.667V52h-2.666V32A9.344 9.344 0 0136 22.667h8A9.344 9.344 0 0153.333 32v20h-2.666v-2.667H48V80h2.667V54.667H56V32c-.007-6.624-5.376-11.993-12-12z"/><path d="M41.333 54.666h-2.666V80h2.666V54.666zM66.667 13.334a8 8 0 00-8 8 8.008 8.008 0 008 8 8 8 0 100-16zm0 13.333a5.333 5.333 0 110-10.667 5.333 5.333 0 010 10.667zM70.667 30.667h-12v2.666h12A6.675 6.675 0 0177.333 40v17.333h-2.666v-2.666H72V80h2.667V60H80V40a9.344 9.344 0 00-9.333-9.333zM58.667 54.666v2.667h-5.334V60h5.334v20h2.666V54.666h-2.666z"/><path d="M68 60h-2.667v20H68V60zM13.333 13.334a8 8 0 00-8 8 8.008 8.008 0 008 8 8 8 0 100-16zm0 13.333a5.333 5.333 0 110-10.667 5.333 5.333 0 010 10.667zM9.333 30.667A9.344 9.344 0 000 40v20h5.333v20H8V54.667H5.333v2.666H2.667V40a6.675 6.675 0 016.666-6.667h12v-2.666h-12zM21.333 57.333v-2.666h-2.666V80h2.666V60h5.334v-2.667h-5.334z"/><path d="M14.667 60H12v20h2.667V60z"/></g><defs><clipPath id="gclip0_17:68"><path fill="#fff" d="M0 0h80v80H0z"/></clipPath></defs></svg><svg fill="none" viewBox="0 0 80 80" id="service-2" xmlns="http://www.w3.org/2000/svg"><path d="M76 15.385H61.333v-4.616C61.328 4.824 57.153.007 52 0H28c-5.152.007-9.328 4.824-9.333 10.77v4.615H4c-2.21 0-4 2.066-4 4.615v30.77c.007 1.948 1.074 3.682 2.667 4.331v20.284c0 2.549 1.79 4.615 4 4.615h66.666c2.21 0 4-2.066 4-4.615V55.1c1.593-.65 2.66-2.383 2.667-4.332V20c0-2.549-1.79-4.615-4-4.615zm-54.667-4.616C21.338 6.523 24.32 3.082 28 3.077h24c3.68.005 6.662 3.446 6.667 7.692v4.616h-2.72L56 10.769c-.004-2.547-1.793-4.61-4-4.615H27.95c-2.207.005-3.995 2.068-4 4.615v.016l.037 4.6h-2.654v-4.616zm32-.021l-.053 4.637H26.653l-.041-4.616c0-.85.597-1.538 1.333-1.538H52c.73 0 1.323.675 1.333 1.517zm21.334 64.637c0 .85-.597 1.538-1.334 1.538H6.667c-.737 0-1.334-.689-1.334-1.538v-20h9.334V60c0 .85.597 1.538 1.333 1.538h5.333c.737 0 1.334-.688 1.334-1.538v-4.615h34.666V60c0 .85.597 1.538 1.334 1.538H64c.736 0 1.333-.688 1.333-1.538v-4.615h9.334v20zM17.333 58.46V50.77c0-.415.148-.811.41-1.095a1.19 1.19 0 01.924-.443c.736 0 1.333.689 1.333 1.538v7.693h-2.667zm42.667 0V50.77c0-.85.597-1.538 1.333-1.538.36-.002.704.169.951.47.247.282.385.667.383 1.068v7.693H60zm17.333-7.692c0 .85-.597 1.539-1.333 1.539H65.333v-1.539c-.01-2.544-1.794-4.604-4-4.615-2.209 0-4 2.066-4 4.615v1.539H22.667v-1.539c0-2.549-1.791-4.615-4-4.615-2.204.014-3.988 2.072-4 4.615v1.539H4c-.736 0-1.333-.69-1.333-1.539V20c0-.85.597-1.538 1.333-1.538h72c.736 0 1.333.688 1.333 1.538v30.77z" fill="#FF6744"/></svg><svg fill="none" viewBox="0 0 76 76" id="service-3" xmlns="http://www.w3.org/2000/svg"><path d="M69.25 8H63V5.5a5 5 0 00-10 0V8H43V5.5a5 5 0 00-10 0V8H23V5.5a5 5 0 00-10 0V8H6.75A6.25 6.25 0 00.5 14.25v50a6.25 6.25 0 006.25 6.25h35a1.25 1.25 0 000-2.5h-35A3.761 3.761 0 013 64.25V25.5h70v21.25a1.25 1.25 0 002.5 0v-32.5A6.25 6.25 0 0069.25 8zM55.5 5.5a2.5 2.5 0 015 0V13a2.5 2.5 0 01-5 0V5.5zm-20 0a2.5 2.5 0 015 0V13a2.5 2.5 0 01-5 0V5.5zm-20 0a2.5 2.5 0 015 0V13a2.5 2.5 0 01-5 0V5.5zM73 23H3v-8.75a3.761 3.761 0 013.75-3.75H13V13a5 5 0 1010 0v-2.5h10V13a5 5 0 1010 0v-2.5h10V13a5 5 0 1010 0v-2.5h6.25A3.761 3.761 0 0173 14.25V23z" fill="#FF6744"/><path d="M35.5 34.25a2.5 2.5 0 00-2.5-2.5h-5a2.5 2.5 0 00-2.5 2.5V38a2.5 2.5 0 002.5 2.5h5a2.5 2.5 0 002.5-2.5v-3.75zM28 38v-3.75h5V38h-5zM20.5 34.25a2.5 2.5 0 00-2.5-2.5h-5a2.5 2.5 0 00-2.5 2.5V38a2.5 2.5 0 002.5 2.5h5a2.5 2.5 0 002.5-2.5v-3.75zM13 38v-3.75h5V38h-5zM63 40.5a2.5 2.5 0 002.5-2.5v-3.75a2.5 2.5 0 00-2.5-2.5h-5a2.5 2.5 0 00-2.5 2.5V38a2.5 2.5 0 002.5 2.5h5zm-5-6.25h5V38h-5v-3.75zM35.5 45.5A2.5 2.5 0 0033 43h-5a2.5 2.5 0 00-2.5 2.5v3.75a2.5 2.5 0 002.5 2.5h5a2.5 2.5 0 002.5-2.5V45.5zM28 49.25V45.5h5v3.75h-5zM20.5 45.5A2.5 2.5 0 0018 43h-5a2.5 2.5 0 00-2.5 2.5v3.75a2.5 2.5 0 002.5 2.5h5a2.5 2.5 0 002.5-2.5V45.5zM13 49.25V45.5h5v3.75h-5zM33 54.25h-5a2.5 2.5 0 00-2.5 2.5v3.75A2.5 2.5 0 0028 63h5a2.5 2.5 0 002.5-2.5v-3.75a2.5 2.5 0 00-2.5-2.5zm-5 6.25v-3.75h5v3.75h-5zM43 40.5h5a2.5 2.5 0 002.5-2.5v-3.75a2.5 2.5 0 00-2.5-2.5h-5a2.5 2.5 0 00-2.5 2.5V38a2.5 2.5 0 002.5 2.5zm0-6.25h5V38h-5v-3.75zM40.5 49.25a2.5 2.5 0 002.5 2.5 1.25 1.25 0 000-2.5V45.5h5a1.25 1.25 0 000-2.5h-5a2.5 2.5 0 00-2.5 2.5v3.75zM18 54.25h-5a2.5 2.5 0 00-2.5 2.5v3.75A2.5 2.5 0 0013 63h5a2.5 2.5 0 002.5-2.5v-3.75a2.5 2.5 0 00-2.5-2.5zm-5 6.25v-3.75h5v3.75h-5z" fill="#FF6744"/><path d="M59.25 43A16.25 16.25 0 1075.5 59.25 16.269 16.269 0 0059.25 43zm0 30A13.75 13.75 0 1173 59.25 13.766 13.766 0 0159.25 73z" fill="#FF6744"/><path d="M66.472 54.01l-9.722 9.723-4.419-4.42a1.25 1.25 0 00-1.767 1.767l5.302 5.304a1.25 1.25 0 001.768 0L68.24 55.778a1.25 1.25 0 00-1.767-1.768z" fill="#FF6744"/></svg><svg fill="none" viewBox="0 0 80 80" id="service-4" xmlns="http://www.w3.org/2000/svg"><path d="M71.304 27.366C71.304 12.252 57.29 0 40 0 22.711 0 8.696 12.252 8.696 27.366 4.226 27.852 0 30.406 0 36.336v14.291c0 6.69 5.357 9.122 10.435 9.122h5.043c.96 0 1.74-.68 1.74-1.52V28.795c0-.84-.78-1.52-1.74-1.52h-3.304C12.174 13.84 24.632 2.949 40 2.949S67.826 13.84 67.826 27.275h-3.304c-.96 0-1.74.68-1.74 1.52v29.388c0 .84.78 1.52 1.74 1.52h3.304C67.34 70.148 61.6 72.596 50.14 73.037v-1.019c0-1.68-1.557-3.04-3.478-3.04H35.72c-1.92 0-3.477 1.36-3.477 3.04v4.941c0 1.68 1.557 3.041 3.478 3.041h10.974c1.92 0 3.478-1.361 3.478-3.04v-.882c11.026-.441 20.556-2.433 21.13-16.466 4.47-.486 8.696-3.04 8.696-8.97v-14.29c0-5.96-4.209-8.5-8.696-8.986zM13.74 30.209v26.454h-3.391c-2.574 0-6.957-.79-6.957-6.081V36.29c0-5.245 4.33-6.081 6.957-6.081h3.391zm32.957 44.455v2.31H35.722v-4.94h10.974v2.63zm29.826-24.037c0 5.245-4.33 6.081-6.957 6.081h-3.304V30.317h3.391c2.574 0 6.957.79 6.957 6.08l-.087 14.231z" fill="#FF6744"/></svg></svg>