<svg width="23" height="23" viewBox="0 0 23 23" fill="none" xmlns="http://www.w3.org/2000/svg">
<path opacity="0.1" d="M11.5386 0.674805C5.49647 0.674805 0.598389 5.56763 0.598389 11.6032C0.598389 17.6388 5.49647 22.5317 11.5386 22.5317C17.5806 22.5317 22.4787 17.6388 22.4787 11.6032C22.4717 5.57054 17.5777 0.681831 11.5386 0.674805Z" fill="white"/>
<path d="M17.8539 8.14272L11.6134 16.6022C11.4646 16.7995 11.2427 16.9287 10.9975 16.9609C10.7523 16.9931 10.5045 16.9256 10.3097 16.7734L5.85341 13.2144C5.46017 12.9001 5.3965 12.3268 5.71119 11.934C6.02588 11.5412 6.59977 11.4775 6.99301 11.7919L10.709 14.7617L16.3861 7.06536C16.5722 6.78631 16.8968 6.63203 17.231 6.66377C17.5652 6.69551 17.8549 6.90814 17.9851 7.21724C18.1152 7.52633 18.0648 7.88188 17.8539 8.14272Z" fill="white"/>
</svg>
