<svg width="23" height="23" viewBox="0 0 23 23" fill="none" xmlns="http://www.w3.org/2000/svg">
<path d="M11.7009 0.510742C5.65882 0.510742 0.760742 5.40357 0.760742 11.4392C0.760742 17.4748 5.65882 22.3676 11.7009 22.3676C17.743 22.3676 22.6411 17.4748 22.6411 11.4392C22.634 5.40648 17.7401 0.517768 11.7009 0.510742Z" fill="#5243C2" fill-opacity="0.103693"/>
<path d="M18.0161 7.97865L11.7756 16.4382C11.6268 16.6354 11.4049 16.7647 11.1597 16.7969C10.9146 16.8291 10.6667 16.7615 10.4719 16.6094L6.01564 13.0504C5.6224 12.736 5.55873 12.1627 5.87342 11.7699C6.18811 11.3771 6.762 11.3135 7.15524 11.6278L10.8713 14.5976L16.5483 6.90129C16.7344 6.62224 17.0591 6.46796 17.3932 6.49971C17.7274 6.53145 18.0171 6.74408 18.1473 7.05317C18.2775 7.36227 18.2271 7.71782 18.0161 7.97865Z" fill="#5243C2"/>
</svg>
