<svg width="24" height="19" viewBox="0 0 24 19" fill="none" xmlns="http://www.w3.org/2000/svg">
<path d="M5.55459 0.0159955C7.42659 0.0159955 8.84259 0.783996 9.80259 2.32C10.6186 3.616 11.0266 5.2 11.0266 7.072C11.0266 9.472 10.4026 11.632 9.15459 13.552C7.95459 15.472 6.10659 17.008 3.61059 18.16L2.96259 16.864C4.45059 16.24 5.72259 15.256 6.77859 13.912C7.88259 12.568 8.43459 11.2 8.43459 9.808C8.43459 9.232 8.36259 8.728 8.21859 8.296C7.45059 8.92 6.56259 9.232 5.55459 9.232C4.25859 9.232 3.15459 8.824 2.24259 8.008C1.37859 7.144 0.946594 6.016 0.946594 4.624C0.946594 3.328 1.37859 2.248 2.24259 1.384C3.15459 0.471997 4.25859 0.0159955 5.55459 0.0159955ZM17.7946 0.0159955C19.6666 0.0159955 21.0826 0.783996 22.0426 2.32C22.8586 3.616 23.2666 5.2 23.2666 7.072C23.2666 9.472 22.6426 11.632 21.3946 13.552C20.1946 15.472 18.3466 17.008 15.8506 18.16L15.2026 16.864C16.6906 16.24 17.9626 15.256 19.0186 13.912C20.1226 12.568 20.6746 11.2 20.6746 9.808C20.6746 9.232 20.6026 8.728 20.4586 8.296C19.6906 8.92 18.8026 9.232 17.7946 9.232C16.4986 9.232 15.3946 8.824 14.4826 8.008C13.6186 7.144 13.1866 6.016 13.1866 4.624C13.1866 3.328 13.6186 2.248 14.4826 1.384C15.3946 0.471997 16.4986 0.0159955 17.7946 0.0159955Z" fill="#FF6744"/>
</svg>
