<svg width="76" height="76" viewBox="0 0 76 76" fill="none" xmlns="http://www.w3.org/2000/svg">
<path d="M69.25 8H63V5.5C63 4.17392 62.4732 2.90215 61.5355 1.96447C60.5979 1.02678 59.3261 0.5 58 0.5C56.6739 0.5 55.4021 1.02678 54.4645 1.96447C53.5268 2.90215 53 4.17392 53 5.5V8H43V5.5C43 4.17392 42.4732 2.90215 41.5355 1.96447C40.5979 1.02678 39.3261 0.5 38 0.5C36.6739 0.5 35.4021 1.02678 34.4645 1.96447C33.5268 2.90215 33 4.17392 33 5.5V8H23V5.5C23 4.17392 22.4732 2.90215 21.5355 1.96447C20.5979 1.02678 19.3261 0.5 18 0.5C16.6739 0.5 15.4021 1.02678 14.4645 1.96447C13.5268 2.90215 13 4.17392 13 5.5V8H6.75C5.0924 8 3.50269 8.65848 2.33058 9.83058C1.15848 11.0027 0.5 12.5924 0.5 14.25V64.25C0.5 65.9076 1.15848 67.4973 2.33058 68.6694C3.50269 69.8415 5.0924 70.5 6.75 70.5H41.75C42.0815 70.5 42.3995 70.3683 42.6339 70.1339C42.8683 69.8995 43 69.5815 43 69.25C43 68.9185 42.8683 68.6005 42.6339 68.3661C42.3995 68.1317 42.0815 68 41.75 68H6.75C5.75635 67.997 4.80425 67.601 4.10163 66.8984C3.39901 66.1958 3.00297 65.2437 3 64.25V25.5H73V46.75C73 47.0815 73.1317 47.3995 73.3661 47.6339C73.6005 47.8683 73.9185 48 74.25 48C74.5815 48 74.8995 47.8683 75.1339 47.6339C75.3683 47.3995 75.5 47.0815 75.5 46.75V14.25C75.5 12.5924 74.8415 11.0027 73.6694 9.83058C72.4973 8.65848 70.9076 8 69.25 8ZM55.5 5.5C55.5 4.83696 55.7634 4.20107 56.2322 3.73223C56.7011 3.26339 57.337 3 58 3C58.663 3 59.2989 3.26339 59.7678 3.73223C60.2366 4.20107 60.5 4.83696 60.5 5.5V13C60.5 13.663 60.2366 14.2989 59.7678 14.7678C59.2989 15.2366 58.663 15.5 58 15.5C57.337 15.5 56.7011 15.2366 56.2322 14.7678C55.7634 14.2989 55.5 13.663 55.5 13V5.5ZM35.5 5.5C35.5 4.83696 35.7634 4.20107 36.2322 3.73223C36.7011 3.26339 37.337 3 38 3C38.663 3 39.2989 3.26339 39.7678 3.73223C40.2366 4.20107 40.5 4.83696 40.5 5.5V13C40.5 13.663 40.2366 14.2989 39.7678 14.7678C39.2989 15.2366 38.663 15.5 38 15.5C37.337 15.5 36.7011 15.2366 36.2322 14.7678C35.7634 14.2989 35.5 13.663 35.5 13V5.5ZM15.5 5.5C15.5 4.83696 15.7634 4.20107 16.2322 3.73223C16.7011 3.26339 17.337 3 18 3C18.663 3 19.2989 3.26339 19.7678 3.73223C20.2366 4.20107 20.5 4.83696 20.5 5.5V13C20.5 13.663 20.2366 14.2989 19.7678 14.7678C19.2989 15.2366 18.663 15.5 18 15.5C17.337 15.5 16.7011 15.2366 16.2322 14.7678C15.7634 14.2989 15.5 13.663 15.5 13V5.5ZM73 23H3V14.25C3.00297 13.2564 3.39901 12.3042 4.10163 11.6016C4.80425 10.899 5.75635 10.503 6.75 10.5H13V13C13 14.3261 13.5268 15.5979 14.4645 16.5355C15.4021 17.4732 16.6739 18 18 18C19.3261 18 20.5979 17.4732 21.5355 16.5355C22.4732 15.5979 23 14.3261 23 13V10.5H33V13C33 14.3261 33.5268 15.5979 34.4645 16.5355C35.4021 17.4732 36.6739 18 38 18C39.3261 18 40.5979 17.4732 41.5355 16.5355C42.4732 15.5979 43 14.3261 43 13V10.5H53V13C53 14.3261 53.5268 15.5979 54.4645 16.5355C55.4021 17.4732 56.6739 18 58 18C59.3261 18 60.5979 17.4732 61.5355 16.5355C62.4732 15.5979 63 14.3261 63 13V10.5H69.25C70.2437 10.503 71.1958 10.899 71.8984 11.6016C72.601 12.3042 72.997 13.2564 73 14.25V23Z" fill="#FF6744"/>
<path d="M35.5 34.25C35.5 33.587 35.2366 32.9511 34.7678 32.4822C34.2989 32.0134 33.663 31.75 33 31.75H28C27.337 31.75 26.7011 32.0134 26.2322 32.4822C25.7634 32.9511 25.5 33.587 25.5 34.25V38C25.5 38.663 25.7634 39.2989 26.2322 39.7678C26.7011 40.2366 27.337 40.5 28 40.5H33C33.663 40.5 34.2989 40.2366 34.7678 39.7678C35.2366 39.2989 35.5 38.663 35.5 38V34.25ZM28 38V34.25H33V38H28Z" fill="#FF6744"/>
<path d="M20.5 34.25C20.5 33.587 20.2366 32.9511 19.7678 32.4822C19.2989 32.0134 18.663 31.75 18 31.75H13C12.337 31.75 11.7011 32.0134 11.2322 32.4822C10.7634 32.9511 10.5 33.587 10.5 34.25V38C10.5 38.663 10.7634 39.2989 11.2322 39.7678C11.7011 40.2366 12.337 40.5 13 40.5H18C18.663 40.5 19.2989 40.2366 19.7678 39.7678C20.2366 39.2989 20.5 38.663 20.5 38V34.25ZM13 38V34.25H18V38H13Z" fill="#FF6744"/>
<path d="M63 40.5C63.663 40.5 64.2989 40.2366 64.7678 39.7678C65.2366 39.2989 65.5 38.663 65.5 38V34.25C65.5 33.587 65.2366 32.9511 64.7678 32.4822C64.2989 32.0134 63.663 31.75 63 31.75H58C57.337 31.75 56.7011 32.0134 56.2322 32.4822C55.7634 32.9511 55.5 33.587 55.5 34.25V38C55.5 38.663 55.7634 39.2989 56.2322 39.7678C56.7011 40.2366 57.337 40.5 58 40.5H63ZM58 34.25H63V38H58V34.25Z" fill="#FF6744"/>
<path d="M35.5 45.5C35.5 44.837 35.2366 44.2011 34.7678 43.7322C34.2989 43.2634 33.663 43 33 43H28C27.337 43 26.7011 43.2634 26.2322 43.7322C25.7634 44.2011 25.5 44.837 25.5 45.5V49.25C25.5 49.913 25.7634 50.5489 26.2322 51.0178C26.7011 51.4866 27.337 51.75 28 51.75H33C33.663 51.75 34.2989 51.4866 34.7678 51.0178C35.2366 50.5489 35.5 49.913 35.5 49.25V45.5ZM28 49.25V45.5H33V49.25H28Z" fill="#FF6744"/>
<path d="M20.5 45.5C20.5 44.837 20.2366 44.2011 19.7678 43.7322C19.2989 43.2634 18.663 43 18 43H13C12.337 43 11.7011 43.2634 11.2322 43.7322C10.7634 44.2011 10.5 44.837 10.5 45.5V49.25C10.5 49.913 10.7634 50.5489 11.2322 51.0178C11.7011 51.4866 12.337 51.75 13 51.75H18C18.663 51.75 19.2989 51.4866 19.7678 51.0178C20.2366 50.5489 20.5 49.913 20.5 49.25V45.5ZM13 49.25V45.5H18V49.25H13Z" fill="#FF6744"/>
<path d="M33 54.25H28C27.337 54.25 26.7011 54.5134 26.2322 54.9822C25.7634 55.4511 25.5 56.087 25.5 56.75V60.5C25.5 61.163 25.7634 61.7989 26.2322 62.2678C26.7011 62.7366 27.337 63 28 63H33C33.663 63 34.2989 62.7366 34.7678 62.2678C35.2366 61.7989 35.5 61.163 35.5 60.5V56.75C35.5 56.087 35.2366 55.4511 34.7678 54.9822C34.2989 54.5134 33.663 54.25 33 54.25ZM28 60.5V56.75H33V60.5H28Z" fill="#FF6744"/>
<path d="M43 40.5H48C48.663 40.5 49.2989 40.2366 49.7678 39.7678C50.2366 39.2989 50.5 38.663 50.5 38V34.25C50.5 33.587 50.2366 32.9511 49.7678 32.4822C49.2989 32.0134 48.663 31.75 48 31.75H43C42.337 31.75 41.7011 32.0134 41.2322 32.4822C40.7634 32.9511 40.5 33.587 40.5 34.25V38C40.5 38.663 40.7634 39.2989 41.2322 39.7678C41.7011 40.2366 42.337 40.5 43 40.5ZM43 34.25H48V38H43V34.25Z" fill="#FF6744"/>
<path d="M40.5 49.25C40.5 49.913 40.7634 50.5489 41.2322 51.0178C41.7011 51.4866 42.337 51.75 43 51.75C43.3315 51.75 43.6495 51.6183 43.8839 51.3839C44.1183 51.1495 44.25 50.8315 44.25 50.5C44.25 50.1685 44.1183 49.8505 43.8839 49.6161C43.6495 49.3817 43.3315 49.25 43 49.25V45.5H48C48.3315 45.5 48.6495 45.3683 48.8839 45.1339C49.1183 44.8995 49.25 44.5815 49.25 44.25C49.25 43.9185 49.1183 43.6005 48.8839 43.3661C48.6495 43.1317 48.3315 43 48 43H43C42.337 43 41.7011 43.2634 41.2322 43.7322C40.7634 44.2011 40.5 44.837 40.5 45.5V49.25Z" fill="#FF6744"/>
<path d="M18 54.25H13C12.337 54.25 11.7011 54.5134 11.2322 54.9822C10.7634 55.4511 10.5 56.087 10.5 56.75V60.5C10.5 61.163 10.7634 61.7989 11.2322 62.2678C11.7011 62.7366 12.337 63 13 63H18C18.663 63 19.2989 62.7366 19.7678 62.2678C20.2366 61.7989 20.5 61.163 20.5 60.5V56.75C20.5 56.087 20.2366 55.4511 19.7678 54.9822C19.2989 54.5134 18.663 54.25 18 54.25ZM13 60.5V56.75H18V60.5H13Z" fill="#FF6744"/>
<path d="M59.25 43C56.0361 43 52.8943 43.953 50.222 45.7386C47.5497 47.5242 45.4669 50.0621 44.237 53.0314C43.007 56.0007 42.6852 59.268 43.3122 62.4202C43.9393 65.5724 45.4869 68.4679 47.7595 70.7405C50.0321 73.0131 52.9276 74.5607 56.0798 75.1878C59.232 75.8148 62.4993 75.493 65.4686 74.263C68.4379 73.0331 70.9758 70.9503 72.7614 68.278C74.547 65.6057 75.5 62.4639 75.5 59.25C75.495 54.9418 73.7814 50.8114 70.735 47.765C67.6886 44.7186 63.5582 43.005 59.25 43ZM59.25 73C56.5305 73 53.8721 72.1936 51.6109 70.6827C49.3497 69.1718 47.5874 67.0244 46.5467 64.5119C45.506 61.9994 45.2337 59.2347 45.7642 56.5675C46.2948 53.9003 47.6043 51.4503 49.5273 49.5273C51.4503 47.6043 53.9003 46.2947 56.5675 45.7642C59.2348 45.2337 61.9994 45.506 64.5119 46.5467C67.0244 47.5874 69.1718 49.3497 70.6827 51.6109C72.1936 53.8721 73 56.5305 73 59.25C72.9957 62.8954 71.5457 66.3903 68.968 68.968C66.3903 71.5457 62.8954 72.9957 59.25 73Z" fill="#FF6744"/>
<path d="M66.4725 54.0101L56.75 63.7326L52.3313 59.3126C52.0955 59.0849 51.7798 58.9589 51.452 58.9617C51.1243 58.9646 50.8108 59.096 50.579 59.3278C50.3473 59.5596 50.2158 59.8731 50.2129 60.2008C50.2101 60.5286 50.3361 60.8443 50.5638 61.0801L55.8663 66.3838C56.1007 66.6182 56.4186 66.7498 56.75 66.7498C57.0815 66.7498 57.3994 66.6182 57.6338 66.3838L68.24 55.7776C68.4677 55.5418 68.5937 55.2261 68.5909 54.8983C68.588 54.5706 68.4566 54.2571 68.2248 54.0253C67.993 53.7935 67.6795 53.6621 67.3518 53.6592C67.024 53.6564 66.7083 53.7824 66.4725 54.0101Z" fill="#FF6744"/>
</svg>
